<svg width="42" height="42" viewBox="0 0 42 42" fill="none" xmlns="http://www.w3.org/2000/svg">
    <path fill-rule="evenodd" clip-rule="evenodd" d="M21 35.4993C22.1667 35.4993 23.1125 36.445 23.1125 37.6117C23.1125 38.7784 22.1667 39.7242 21 39.7242C19.8333 39.7242 18.8875 38.7784 18.8875 37.6117C18.8875 36.445 19.8333 35.4993 21 35.4993ZM30.2662 31.1279C31.2994 30.0947 32.9745 30.0947 34.0077 31.1279C35.0409 32.1611 35.0409 33.8362 34.0077 34.8694C32.9745 35.9026 31.2994 35.9026 30.2662 34.8694C29.233 33.8362 29.233 32.1611 30.2662 31.1279ZM8.61596 31.7516C9.30472 31.0628 10.4214 31.0628 11.1102 31.7516C11.7989 32.4403 11.7989 33.557 11.1102 34.2458C10.4214 34.9345 9.30472 34.9345 8.61596 34.2458C7.92721 33.557 7.92721 32.4403 8.61596 31.7516ZM5.25 16.6117C8.1495 16.6117 10.5 18.9622 10.5 21.8617C10.5 24.7612 8.1495 27.1117 5.25 27.1117C2.35051 27.1117 0 24.7612 0 21.8617C0 18.9622 2.35051 16.6117 5.25 16.6117ZM36.75 18.5598C38.5736 18.5598 40.0519 20.0381 40.0519 21.8617C40.0519 23.6853 38.5736 25.1637 36.75 25.1637C34.9264 25.1637 33.4481 23.6853 33.4481 21.8617C33.4481 20.0381 34.9264 18.5598 36.75 18.5598ZM6.53498 7.39672C8.37303 5.55866 11.3531 5.55866 13.1912 7.39672C15.0292 9.23477 15.0292 12.2148 13.1912 14.0529C11.3531 15.8909 8.37303 15.8909 6.53498 14.0529C4.69693 12.2148 4.69693 9.23477 6.53498 7.39672ZM29.6427 8.23059C31.0202 6.85308 33.2536 6.85308 34.6311 8.23059C36.0087 9.60811 36.0087 11.8415 34.6311 13.219C33.2536 14.5965 31.0202 14.5965 29.6427 13.219C28.2652 11.8415 28.2652 9.60811 29.6427 8.23059ZM21 2C23.2708 2 25.1117 3.84089 25.1117 6.11173C25.1117 8.38258 23.2708 10.2235 21 10.2235C18.7292 10.2235 16.8883 8.38258 16.8883 6.11173C16.8883 3.84089 18.7292 2 21 2Z" fill="#ACAFBF"/>
</svg>
